<svg width="18" height="15" viewBox="0 0 18 15" fill="none" xmlns="http://www.w3.org/2000/svg">
<path d="M13.4444 14C13.4444 12.5641 11.4546 11.4 9 11.4C6.5454 11.4 4.55556 12.5641 4.55556 14M17 11.4003C17 10.3342 15.903 9.41788 14.3333 9.01667M1 11.4003C1 10.3342 2.09697 9.41788 3.66667 9.01667M14.3333 5.53796C14.8789 5.06188 15.2222 4.37003 15.2222 3.6C15.2222 2.16406 14.0283 1 12.5556 1C11.8726 1 11.2496 1.25034 10.7778 1.66204M3.66667 5.53796C3.12111 5.06188 2.77778 4.37003 2.77778 3.6C2.77778 2.16406 3.97169 1 5.44444 1C6.12743 1 6.75044 1.25034 7.22222 1.66204M9 8.8C7.52724 8.8 6.33333 7.63594 6.33333 6.2C6.33333 4.76406 7.52724 3.6 9 3.6C10.4728 3.6 11.6667 4.76406 11.6667 6.2C11.6667 7.63594 10.4728 8.8 9 8.8Z" stroke="white" stroke-width="1.5" stroke-linecap="round" stroke-linejoin="round"/>
</svg>
